<?xml version="1.0" standalone="no"?>
<!DOCTYPE svg PUBLIC "-//W3C//DTD SVG 20010904//EN"
 "http://www.w3.org/TR/2001/REC-SVG-20010904/DTD/svg10.dtd">
<svg version="1.0" xmlns="http://www.w3.org/2000/svg"
 width="700.000000pt" height="700.000000pt" viewBox="0 0 700.000000 700.000000"
 preserveAspectRatio="xMidYMid meet">
<metadata>
Created by potrace 1.11, written by Peter Selinger 2001-2013
</metadata>
<g transform="translate(0.000000,700.000000) scale(0.100000,-0.100000)"
fill="#000000" stroke="none">
<path d="M3459 6646 c-2 -2 -31 -6 -64 -9 -217 -22 -443 -88 -665 -193 -425
-203 -722 -508 -925 -954 -43 -94 -73 -175 -65 -175 1 0 -4 -13 -10 -30 -19
-49 -24 -142 -10 -191 32 -114 168 -168 280 -111 58 29 84 69 122 191 105 338
291 584 603 797 181 123 438 220 650 245 33 3 69 8 80 10 29 6 263 5 310 -1
68 -8 126 -16 148 -21 12 -2 31 -6 42 -8 89 -18 149 -38 275 -92 163 -69 349
-205 483 -354 90 -99 102 -114 152 -190 49 -75 96 -165 125 -242 82 -213 99
-469 46 -671 -87 -335 -276 -586 -932 -1241 -162 -162 -692 -680 -779 -761
-22 -20 -116 -110 -210 -200 -93 -89 -188 -179 -210 -200 -22 -20 -76 -71
-120 -113 -44 -43 -132 -125 -195 -183 -122 -113 -121 -113 -305 -284 -65 -60
-123 -115 -129 -120 -6 -6 -60 -55 -121 -110 -60 -55 -115 -104 -121 -110 -10
-9 -144 -131 -198 -180 -12 -11 -64 -58 -114 -104 l-92 -83 0 -304 0 -304
1990 0 1990 0 0 323 c0 353 -5 396 -56 457 -39 45 -80 63 -149 64 -105 0 -173
-54 -200 -159 -4 -16 -9 -82 -11 -145 -1 -63 -3 -118 -3 -121 -1 -4 -712 -6
-1581 -6 -1265 0 -1580 2 -1580 12 0 13 69 78 265 250 44 38 85 74 91 80 6 5
49 44 95 85 46 41 113 103 149 137 36 34 77 71 90 83 37 32 332 306 431 400
20 19 107 103 194 185 87 83 185 176 219 208 362 345 1200 1175 1331 1317 111
121 203 225 226 255 13 17 29 35 35 40 38 34 197 262 258 368 154 270 213 552
183 877 -11 108 -49 285 -77 355 -5 11 -17 40 -27 65 -62 154 -134 273 -278
460 -11 14 -75 80 -142 147 -265 265 -535 420 -878 507 -55 14 -125 28 -155
31 -30 4 -66 9 -80 11 -31 6 -376 15 -381 10z"/>
</g>
</svg>
