<?xml version="1.0" encoding="UTF-8" standalone="no"?>
<!-- Created with Inkscape (http://www.inkscape.org/) -->

<svg
   xmlns:dc="http://purl.org/dc/elements/1.1/"
   xmlns:cc="http://creativecommons.org/ns#"
   xmlns:rdf="http://www.w3.org/1999/02/22-rdf-syntax-ns#"
   xmlns:svg="http://www.w3.org/2000/svg"
   xmlns="http://www.w3.org/2000/svg"
   xmlns:sodipodi="http://sodipodi.sourceforge.net/DTD/sodipodi-0.dtd"
   xmlns:inkscape="http://www.inkscape.org/namespaces/inkscape"
   width="60pt"
   height="60pt"
   viewBox="0 0 75 74.999995"
   id="svg2"
   version="1.1"
   inkscape:version="0.91 r13725"
   sodipodi:docname="favicon.svg"
   inkscape:export-filename="/Users/dankeenan/Documents/Projects/xeno2/assets/static/logo.png"
   inkscape:export-xdpi="90"
   inkscape:export-ydpi="90">
  <defs
     id="defs4" />
  <sodipodi:namedview
     id="base"
     pagecolor="#ffffff"
     bordercolor="#666666"
     borderopacity="1.0"
     inkscape:pageopacity="0.0"
     inkscape:pageshadow="2"
     inkscape:zoom="1.9663515"
     inkscape:cx="-116.60285"
     inkscape:cy="-1.855639"
     inkscape:document-units="px"
     inkscape:current-layer="layer1"
     showgrid="false"
     inkscape:snap-bbox="true"
     inkscape:bbox-nodes="true"
     inkscape:bbox-paths="false"
     inkscape:object-nodes="true"
     inkscape:snap-text-baseline="true"
     fit-margin-top="0"
     fit-margin-left="0"
     fit-margin-right="0"
     fit-margin-bottom="0"
     inkscape:window-width="1920"
     inkscape:window-height="1031"
     inkscape:window-x="0"
     inkscape:window-y="1"
     inkscape:window-maximized="1"
     units="pt"
     inkscape:snap-page="true" />
  <metadata
     id="metadata7">
    <rdf:RDF>
      <cc:Work
         rdf:about="">
        <dc:format>image/svg+xml</dc:format>
        <dc:type
           rdf:resource="http://purl.org/dc/dcmitype/StillImage" />
        <dc:title></dc:title>
      </cc:Work>
    </rdf:RDF>
  </metadata>
  <g
     inkscape:label="Layer 1"
     inkscape:groupmode="layer"
     id="layer1"
     transform="translate(-552.49557,-472.07265)">
    <g
       style="font-style:normal;font-variant:normal;font-weight:normal;font-stretch:normal;font-size:116.8249054px;line-height:125%;font-family:'courier new';-inkscape-font-specification:'courier new, Normal';text-align:start;letter-spacing:0px;word-spacing:0px;writing-mode:lr-tb;text-anchor:start;fill:#ff0000;fill-opacity:1;stroke:none;stroke-width:1px;stroke-linecap:butt;stroke-linejoin:miter;stroke-opacity:1"
       id="text4260"
       transform="matrix(0.92086317,0,0,0.92086317,59.895902,39.543621)">
      <path
         d="m 557.17313,542.28099 36.793,0 0,-1.88244 q 0,-1.7113 0.68452,-2.45286 0.68452,-0.74157 1.76835,-0.74157 1.02678,0 1.7113,0.74157 0.68452,0.74156 0.68452,2.45286 l 0,6.67408 -46.31925,0 0,-7.07338 q 14.60312,-13.11999 28.40762,-26.69632 6.44591,-6.33182 8.84173,-9.29807 2.39582,-2.96626 3.25147,-5.19095 0.9127,-2.28174 0.9127,-4.56348 0,-6.16068 -4.96278,-10.89529 -4.96277,-4.7346 -11.97911,-4.7346 -6.27478,0 -11.12347,3.59373 -4.84869,3.59374 -6.27477,8.89878 -0.34226,1.36904 -0.85566,1.76834 -0.68452,0.57044 -1.59721,0.57044 -0.96974,0 -1.65426,-0.62748 -0.62748,-0.68452 -0.62748,-1.59722 0,-2.73808 2.96626,-7.41564 3.0233,-4.67756 8.27129,-7.3586 5.30504,-2.68104 10.83825,-2.68104 8.95582,0 15.40172,6.21773 6.44591,6.21773 6.44591,14.08972 0,3.30852 -1.08383,6.10365 -1.08382,2.73808 -3.70782,6.0466 -2.56695,3.25147 -9.29807,9.86851 -16.88485,16.65668 -27.49493,25.84066 l 0,0.34227 z"
         id="path4317"
         inkscape:connector-curvature="0" />
    </g>
  </g>
</svg>
